# xmcd
#
# Track frame offsets:
#	150
#	9016
#	19626
#	33235
#	44871
#	56973
#	66893
#	80478
#	95578
#	105454
#	118200
#	135074
#	148948
#	158419
#	168146
#	181045
#	193869
#	205618
#	217927
#	230091
#
# Disc length: 3203 seconds
#
# Revision: 1
# Processed by: cddbd v1.5.2PL0 Copyright (c) Steve Scherf et al.
# Submitted via: audiograbber 1.83.01
#
DISCID=080c8114
DTITLE=Patsy Cline - The Ultimate Collection
DYEAR=2000
DGENRE=Country
TTITLE0=Faded Love
TTITLE1=You Belong To Me
TTITLE2=Back In Baby's Arms
TTITLE3=True Love
TTITLE4=Someday ( You'll Want Me To Want You )
TTITLE5=I Fall To Pieces
TTITLE6=Sweet Dreams ( Of You )
TTITLE7=Crazy
TTITLE8=He Called Me Baby
TTITLE9=I Love You So Much ( It Hruts )
TTITLE10=Anytime
TTITLE11=Your Cheatin' Heart
TTITLE12=She's Got You
TTITLE13=Walkin' After Midnight
TTITLE14=Always
TTITLE15=Strange
TTITLE16=So Wrong
TTITLE17=The Wayward Wind
TTITLE18=Heartaches
TTITLE19=I Fall To Pieces ( With Jim Reeves )
EXTD=
EXTT0=
EXTT1=
EXTT2=
EXTT3=
EXTT4=
EXTT5=
EXTT6=
EXTT7=
EXTT8=
EXTT9=
EXTT10=
EXTT11=
EXTT12=
EXTT13=
EXTT14=
EXTT15=
EXTT16=
EXTT17=
EXTT18=
EXTT19=
PLAYORDER=
